<svg id="Layer_1" data-name="Layer 1" xmlns="http://www.w3.org/2000/svg" viewBox="0 0 87.08 25.86"><defs><style>.cls-1{fill:#4489F1;}.cls-2{fill:#0e0f21;}</style></defs><title>logo</title><path class="cls-1" d="M21.7,14.41A5.23,5.23,0,0,0,22.27,12a5.29,5.29,0,0,0-3.43-4.95A6.19,6.19,0,0,1,17.5,9.45a2.64,2.64,0,1,1-2,.41A5.27,5.27,0,1,0,7.62,5.27a6,6,0,0,0,0,.66A6.18,6.18,0,0,1,10.36,6a2.63,2.63,0,1,1,1,1.43,4.14,4.14,0,0,0-2.6-.7A5.28,5.28,0,0,0,7,17a3.2,3.2,0,1,1-2-.08A6.29,6.29,0,0,1,3.2,14.75,5.93,5.93,0,0,0,0,20a5.86,5.86,0,1,0,8-5.45,2.63,2.63,0,1,1,1.77-.08,6.53,6.53,0,0,1,1.85,2,5.3,5.3,0,0,0,1.23-1.11,5.26,5.26,0,0,0,6.07,1.57A3.23,3.23,0,1,1,16.69,20a3.19,3.19,0,0,1,.53-1.76,6.2,6.2,0,0,1-2.71-.52A6.28,6.28,0,0,0,14.05,20,5.86,5.86,0,1,0,21.7,14.41Z"/><path class="cls-2" d="M45.12,21.46A0.71,0.71,0,0,1,44.45,21l-0.56-1.56c-0.25-.67-0.49-1.36-0.73-2.05H35.82c-0.23.7-.47,1.39-0.71,2.07-0.19.52-.38,1-0.55,1.55a0.7,0.7,0,0,1-.67.47H32.1a0.71,0.71,0,0,1-.67-0.94c0.53-1.5,1-2.89,1.52-4.21,0.59-1.57,1.16-3.06,1.71-4.46s1.11-2.74,1.66-4,1-2.25,1.51-3.35a0.71,0.71,0,0,1,.63-0.41h2.12a0.68,0.68,0,0,1,.63.41c0.52,1.1,1,2.23,1.51,3.35s1.1,2.61,1.66,4,1.14,2.89,1.73,4.46c0.49,1.3,1,2.71,1.54,4.21a0.7,0.7,0,0,1-.67.94H45.12ZM39.81,8.2a0.35,0.35,0,0,0-.64,0c-0.3.73-.63,1.55-1,2.47-0.49,1.27-1,2.65-1.55,4.14h5.72c-0.54-1.49-1.05-2.87-1.56-4.16C40.43,9.73,40.1,8.91,39.81,8.2Z"/><path class="cls-2" d="M49.35,4.08H51a0.71,0.71,0,0,1,.7.7V7.88h4.08v2.53H51.68v5.81a3.86,3.86,0,0,0,.5,2.26,2,2,0,0,0,1.71.68A5.52,5.52,0,0,0,55.36,19a9.66,9.66,0,0,0,1-.33,4,4,0,0,0,1,2.4s-1.27.38-1.85,0.47a11.93,11.93,0,0,1-2,.23,6.42,6.42,0,0,1-2.34-.38,3.32,3.32,0,0,1-1.49-1.09,4.44,4.44,0,0,1-.77-1.73,10.68,10.68,0,0,1-.22-2.32V4.78A0.67,0.67,0,0,1,49.35,4.08Z"/><path class="cls-2" d="M70.22,8a7.49,7.49,0,0,1,2.53.38,3.79,3.79,0,0,1,2.52,2.7,8,8,0,0,1,.26,2.12v7.37a0.7,0.7,0,0,1-.57.69c-0.41.07-.93,0.16-1.55,0.25a22,22,0,0,1-3.2.21,9.52,9.52,0,0,1-2.16-.22,4.6,4.6,0,0,1-1.66-.73,3.54,3.54,0,0,1-1.08-1.3,4.56,4.56,0,0,1-.39-2,3.87,3.87,0,0,1,.43-1.91,3.63,3.63,0,0,1,1.2-1.27,5.06,5.06,0,0,1,1.75-.7,9.88,9.88,0,0,1,2.07-.21c0.34,0,.68,0,1.05.06s0.76,0.12,1.18.21v-0.5a4.1,4.1,0,0,0-.13-1A2.23,2.23,0,0,0,72,11.32a1.94,1.94,0,0,0-.83-0.56,3.68,3.68,0,0,0-1.29-.2,11,11,0,0,0-1.93.15l-0.7.14a0.71,0.71,0,0,1-.86-0.57L66.27,9.22a0.69,0.69,0,0,1,.53-0.79c0.3-.07.66-0.15,1.05-0.22A13.71,13.71,0,0,1,70.22,8Zm0.25,11.31a10.82,10.82,0,0,0,2.13-.15V15.82a5.75,5.75,0,0,0-.73-0.15,7.23,7.23,0,0,0-1.05-.07,7.58,7.58,0,0,0-1,.07,2.85,2.85,0,0,0-.93.28,1.64,1.64,0,0,0-.67.56,1.61,1.61,0,0,0-.25.91,1.59,1.59,0,0,0,.68,1.49A3.52,3.52,0,0,0,70.46,19.32Z"/><path class="cls-2" d="M81.74,19.28A3.93,3.93,0,0,0,83.5,19,1,1,0,0,0,84,18a1.29,1.29,0,0,0-.59-1.08A8.67,8.67,0,0,0,81.52,16,13,13,0,0,1,80,15.34a5.56,5.56,0,0,1-1.2-.79A3.17,3.17,0,0,1,78,13.46a3.87,3.87,0,0,1-.29-1.57A3.43,3.43,0,0,1,79.05,9a5.72,5.72,0,0,1,3.61-1,11.15,11.15,0,0,1,2.2.21L85.8,8.43a0.7,0.7,0,0,1,.5.83L85.9,11.1a6.84,6.84,0,0,0-1.28-.41,7.56,7.56,0,0,0-1.8-.19,3.07,3.07,0,0,0-1.5.32,1,1,0,0,0-.57,1,1.23,1.23,0,0,0,.5,1,4,4,0,0,0,.73.42,9.85,9.85,0,0,0,1.1.43,18.12,18.12,0,0,1,1.83.79,4.87,4.87,0,0,1,1.24.88,3.07,3.07,0,0,1,.71,1.11,4.4,4.4,0,0,1,.22,1.5,3.25,3.25,0,0,1-1.39,2.85,6.91,6.91,0,0,1-4,1,10.63,10.63,0,0,1-2.79-.29A12.65,12.65,0,0,1,77.45,21l0.36-1.75a0.69,0.69,0,0,1,.9-0.52c0.27,0.08.56,0.18,0.88,0.26A7.15,7.15,0,0,0,81.74,19.28Z"/><path class="cls-2" d="M63.32,18.89A2.29,2.29,0,0,1,62,19a1.76,1.76,0,0,1-.61-0.4,1.45,1.45,0,0,1-.32-0.64A4.17,4.17,0,0,1,61,17V4.78a0.71,0.71,0,0,0-.7-0.7H58.69a0.71,0.71,0,0,0-.7.7V17.59a6.6,6.6,0,0,0,.21,1.75,2.73,2.73,0,0,0,.74,1.28,3.54,3.54,0,0,0,1.42.79c0.55,0.16,2.85.5,3.91-.26A3.92,3.92,0,0,1,63.32,18.89Z"/></svg>
